<svg xmlns="http://www.w3.org/2000/svg" xmlns:xlink="http://www.w3.org/1999/xlink" width="270" zoomAndPan="magnify" viewBox="0 0 202.5 202.499993" height="270" preserveAspectRatio="xMidYMid meet" version="1.0"><defs><clipPath id="8218d5c60c"><path d="M 12 3 L 129 3 L 129 171 L 12 171 Z M 12 3 " clip-rule="nonzero"/></clipPath><clipPath id="1b31c6864e"><path d="M -12.214844 140.957031 L 47 -20.609375 L 128.484375 9.253906 L 69.273438 170.820312 Z M -12.214844 140.957031 " clip-rule="nonzero"/></clipPath><clipPath id="086748c3e9"><path d="M -12.214844 140.957031 L 47 -20.609375 L 128.484375 9.253906 L 69.273438 170.820312 Z M -12.214844 140.957031 " clip-rule="nonzero"/></clipPath><clipPath id="6be3a90c83"><path d="M 77 33 L 193 33 L 193 200 L 77 200 Z M 77 33 " clip-rule="nonzero"/></clipPath><clipPath id="c0453673d8"><path d="M 216.710938 62.167969 L 158.730469 224.183594 L 77.726562 195.195312 L 135.703125 33.179688 Z M 216.710938 62.167969 " clip-rule="nonzero"/></clipPath><clipPath id="e768b7aef2"><path d="M 216.710938 62.167969 L 158.730469 224.183594 L 77.726562 195.195312 L 135.703125 33.179688 Z M 216.710938 62.167969 " clip-rule="nonzero"/></clipPath></defs><g clip-path="url(#8218d5c60c)"><g clip-path="url(#1b31c6864e)"><g clip-path="url(#086748c3e9)"><path fill="#004e00" d="M 17.679688 59.929688 C 1.175781 104.425781 23.835938 153.882812 68.351562 170.425781 L 128.207031 9.269531 C 83.710938 -7.234375 34.226562 15.414062 17.679688 59.929688 Z M 17.679688 59.929688 " fill-opacity="1" fill-rule="nonzero"/></g></g></g><g clip-path="url(#6be3a90c83)"><g clip-path="url(#c0453673d8)"><g clip-path="url(#e768b7aef2)"><path fill="#6dc179" d="M 187.5 143.238281 C 203.632812 98.714844 180.644531 49.539062 136.097656 33.371094 L 77.605469 194.628906 C 122.128906 210.761719 171.332031 187.78125 187.5 143.238281 Z M 187.5 143.238281 " fill-opacity="1" fill-rule="nonzero"/></g></g></g></svg>