<svg xmlns="http://www.w3.org/2000/svg" xmlns:xlink="http://www.w3.org/1999/xlink" width="270" zoomAndPan="magnify" viewBox="0 0 202.5 202.499993" height="270" preserveAspectRatio="xMidYMid meet" version="1.0"><defs><clipPath id="33db154db9"><path d="M 0 0 L 202 0 L 202 202 L 0 202 Z M 0 0 " clip-rule="nonzero"/></clipPath><clipPath id="52d309a532"><path d="M 101 0 C 45.21875 0 0 45.21875 0 101 C 0 156.78125 45.21875 202 101 202 C 156.78125 202 202 156.78125 202 101 C 202 45.21875 156.78125 0 101 0 Z M 101 0 " clip-rule="nonzero"/></clipPath><clipPath id="c5dcfcee1e"><path d="M 0 0 L 202 0 L 202 202 L 0 202 Z M 0 0 " clip-rule="nonzero"/></clipPath><clipPath id="ad3a8f0600"><path d="M 101 0 C 45.21875 0 0 45.21875 0 101 C 0 156.78125 45.21875 202 101 202 C 156.78125 202 202 156.78125 202 101 C 202 45.21875 156.78125 0 101 0 Z M 101 0 " clip-rule="nonzero"/></clipPath><clipPath id="e84e635d59"><rect x="0" width="202" y="0" height="202"/></clipPath><clipPath id="a327cc8965"><path d="M 19 20 L 113 20 L 113 155 L 19 155 Z M 19 20 " clip-rule="nonzero"/></clipPath><clipPath id="6c715d7427"><path d="M 0.273438 130.53125 L 47.726562 1.0625 L 113.023438 24.996094 L 65.574219 154.464844 Z M 0.273438 130.53125 " clip-rule="nonzero"/></clipPath><clipPath id="9fb3d070c1"><path d="M 0.273438 130.53125 L 47.726562 1.0625 L 113.023438 24.996094 L 65.574219 154.464844 Z M 0.273438 130.53125 " clip-rule="nonzero"/></clipPath><clipPath id="e3e5754479"><path d="M 72 44 L 165 44 L 165 178 L 72 178 Z M 72 44 " clip-rule="nonzero"/></clipPath><clipPath id="c60ac523c1"><path d="M 183.71875 67.394531 L 137.261719 197.222656 L 72.347656 173.992188 L 118.804688 44.167969 Z M 183.71875 67.394531 " clip-rule="nonzero"/></clipPath><clipPath id="ba55c6bd8b"><path d="M 183.71875 67.394531 L 137.261719 197.222656 L 72.347656 173.992188 L 118.804688 44.167969 Z M 183.71875 67.394531 " clip-rule="nonzero"/></clipPath><clipPath id="d985fd6b3c"><rect x="0" width="184" y="0" height="197"/></clipPath></defs><g clip-path="url(#33db154db9)"><g clip-path="url(#52d309a532)"><g transform="matrix(1, 0, 0, 1, 0, 0)"><g clip-path="url(#e84e635d59)"><g clip-path="url(#c5dcfcee1e)"><g clip-path="url(#ad3a8f0600)"><rect x="-44.55" width="291.6" fill="#ffffff" height="291.59999" y="-44.549998" fill-opacity="1"/></g></g></g></g></g></g><g transform="matrix(1, 0, 0, 1, 9, 2)"><g clip-path="url(#d985fd6b3c)"><g clip-path="url(#a327cc8965)"><g clip-path="url(#6c715d7427)"><g clip-path="url(#9fb3d070c1)"><path fill="#004e00" d="M 24.230469 65.601562 C 11.003906 101.257812 29.164062 140.890625 64.835938 154.148438 L 112.800781 25.007812 C 77.140625 11.78125 37.488281 29.929688 24.230469 65.601562 Z M 24.230469 65.601562 " fill-opacity="1" fill-rule="nonzero"/></g></g></g><g clip-path="url(#e3e5754479)"><g clip-path="url(#c60ac523c1)"><g clip-path="url(#ba55c6bd8b)"><path fill="#6dc179" d="M 160.3125 132.359375 C 173.238281 96.679688 154.816406 57.277344 119.125 44.320312 L 72.25 173.542969 C 107.929688 186.46875 147.355469 168.054688 160.3125 132.359375 Z M 160.3125 132.359375 " fill-opacity="1" fill-rule="nonzero"/></g></g></g></g></g></svg>