<svg xmlns="http://www.w3.org/2000/svg" xmlns:xlink="http://www.w3.org/1999/xlink" width="1920" zoomAndPan="magnify" viewBox="0 0 1440 225" height="300" preserveAspectRatio="xMidYMid meet" version="1.0"><defs><g/><clipPath id="f9d036d0f2"><rect x="0" width="1341" y="0" height="210"/></clipPath></defs><g transform="matrix(1, 0, 0, 1, 51, -0.000000000000008531)"><g clip-path="url(#f9d036d0f2)"><g fill="#004f00" fill-opacity="1"><g transform="translate(1.940852, 163.433711)"><g><path d="M 76.140625 -128.1875 C 90.148438 -128.1875 100.957031 -124.550781 108.5625 -117.28125 C 116.175781 -110.019531 119.984375 -99.722656 119.984375 -86.390625 C 119.984375 -73.910156 116.476562 -64.164062 109.46875 -57.15625 C 102.457031 -50.15625 92.457031 -46.226562 79.46875 -45.375 L 49.984375 -45.375 L 49.984375 0 L 8.453125 0 L 8.453125 -128.1875 Z M 70.5 -76.90625 C 78.707031 -76.90625 82.8125 -80.066406 82.8125 -86.390625 C 82.8125 -92.890625 78.707031 -96.140625 70.5 -96.140625 L 49.984375 -96.140625 L 49.984375 -76.90625 Z M 70.5 -76.90625 "/></g></g></g><g fill="#004f00" fill-opacity="1"><g transform="translate(122.915805, 163.433711)"><g><path d="M 117.671875 -102.546875 L 117.671875 0 L 75.890625 0 L 75.890625 -14.359375 C 69.734375 -3.421875 61.015625 2.046875 49.734375 2.046875 C 35.722656 2.046875 24.957031 -2.609375 17.4375 -11.921875 C 9.914062 -21.234375 6.15625 -34.347656 6.15625 -51.265625 C 6.15625 -68.359375 9.914062 -81.519531 17.4375 -90.75 C 24.957031 -99.976562 35.722656 -104.59375 49.734375 -104.59375 C 61.179688 -104.59375 69.898438 -99.207031 75.890625 -88.4375 L 75.890625 -102.546875 Z M 61.78125 -31.53125 C 66.394531 -31.53125 69.898438 -33.238281 72.296875 -36.65625 C 74.691406 -40.070312 75.890625 -44.941406 75.890625 -51.265625 C 75.890625 -64.597656 71.1875 -71.265625 61.78125 -71.265625 C 52.039062 -71.265625 47.171875 -64.597656 47.171875 -51.265625 C 47.171875 -44.941406 48.410156 -40.070312 50.890625 -36.65625 C 53.367188 -33.238281 57 -31.53125 61.78125 -31.53125 Z M 61.78125 -31.53125 "/></g></g></g><g fill="#004f00" fill-opacity="1"><g transform="translate(248.761399, 163.433711)"><g><path d="M 28.96875 25.640625 L 44.609375 -12.3125 L 1.796875 -102.546875 L 43.328125 -102.546875 L 64.609375 -61.53125 L 82.546875 -102.546875 L 122.546875 -102.546875 L 66.90625 25.640625 Z M 28.96875 25.640625 "/></g></g></g><g fill="#6dc179" fill-opacity="1"><g transform="translate(371.813538, 163.433711)"><g><path d="M 118.953125 -92.296875 L 84.09375 -92.296875 L 84.09375 0 L 42.5625 0 L 42.5625 -92.296875 L 7.4375 -92.296875 L 7.4375 -128.1875 L 118.953125 -128.1875 Z M 118.953125 -92.296875 "/></g></g></g><g fill="#6dc179" fill-opacity="1"><g transform="translate(488.173881, 163.433711)"><g><path d="M 61.78125 2.046875 C 44.007812 2.046875 30.296875 -2.609375 20.640625 -11.921875 C 10.984375 -21.234375 6.15625 -34.347656 6.15625 -51.265625 C 6.15625 -68.359375 10.984375 -81.519531 20.640625 -90.75 C 30.296875 -99.976562 44.007812 -104.59375 61.78125 -104.59375 C 79.550781 -104.59375 93.304688 -99.976562 103.046875 -90.75 C 112.796875 -81.519531 117.671875 -68.359375 117.671875 -51.265625 C 117.671875 -34.347656 112.796875 -21.234375 103.046875 -11.921875 C 93.304688 -2.609375 79.550781 2.046875 61.78125 2.046875 Z M 61.78125 -31.53125 C 66.570312 -31.53125 70.25 -33.238281 72.8125 -36.65625 C 75.375 -40.070312 76.65625 -44.941406 76.65625 -51.265625 C 76.65625 -64.597656 71.695312 -71.265625 61.78125 -71.265625 C 52.039062 -71.265625 47.171875 -64.597656 47.171875 -51.265625 C 47.171875 -44.941406 48.410156 -40.070312 50.890625 -36.65625 C 53.367188 -33.238281 57 -31.53125 61.78125 -31.53125 Z M 61.78125 -31.53125 "/></g></g></g><g fill="#6dc179" fill-opacity="1"><g transform="translate(611.712712, 163.433711)"><g><path d="M 117.671875 -102.546875 L 117.671875 -2.3125 C 117.671875 12.21875 113.054688 23.367188 103.828125 31.140625 C 94.597656 38.921875 81.351562 42.8125 64.09375 42.8125 C 46.3125 42.8125 32.421875 39.476562 22.421875 32.8125 C 12.429688 26.144531 7.265625 16.742188 6.921875 4.609375 L 44.34375 2.8125 C 44.6875 10.332031 50.585938 14.09375 62.046875 14.09375 C 71.441406 14.09375 76.140625 8.625 76.140625 -2.3125 L 76.140625 -14.359375 C 73.066406 -9.054688 69.347656 -4.992188 64.984375 -2.171875 C 60.628906 0.640625 55.628906 2.046875 49.984375 2.046875 C 35.972656 2.046875 25.164062 -2.609375 17.5625 -11.921875 C 9.957031 -21.234375 6.15625 -34.347656 6.15625 -51.265625 C 6.15625 -68.359375 9.957031 -81.519531 17.5625 -90.75 C 25.164062 -99.976562 35.972656 -104.59375 49.984375 -104.59375 C 61.097656 -104.59375 69.816406 -99.207031 76.140625 -88.4375 L 76.140625 -102.546875 Z M 62.046875 -31.53125 C 66.484375 -31.53125 69.941406 -33.238281 72.421875 -36.65625 C 74.898438 -40.070312 76.140625 -44.941406 76.140625 -51.265625 C 76.140625 -64.597656 71.441406 -71.265625 62.046875 -71.265625 C 52.128906 -71.265625 47.171875 -64.597656 47.171875 -51.265625 C 47.171875 -44.941406 48.453125 -40.070312 51.015625 -36.65625 C 53.578125 -33.238281 57.253906 -31.53125 62.046875 -31.53125 Z M 62.046875 -31.53125 "/></g></g></g><g fill="#6dc179" fill-opacity="1"><g transform="translate(737.814594, 163.433711)"><g><path d="M 117.671875 -51.265625 C 117.671875 -49.390625 117.5 -47.425781 117.15625 -45.375 C 116.8125 -43.320312 116.46875 -41.359375 116.125 -39.484375 L 48.96875 -39.484375 C 51.53125 -32.472656 55.972656 -28.96875 62.296875 -28.96875 C 67.253906 -28.96875 70.671875 -31.359375 72.546875 -36.140625 L 113.828125 -29.21875 C 110.066406 -19.3125 103.65625 -11.625 94.59375 -6.15625 C 85.539062 -0.6875 74.601562 2.046875 61.78125 2.046875 C 44.007812 2.046875 30.296875 -2.609375 20.640625 -11.921875 C 10.984375 -21.234375 6.15625 -34.347656 6.15625 -51.265625 C 6.15625 -68.359375 10.984375 -81.519531 20.640625 -90.75 C 30.296875 -99.976562 44.007812 -104.59375 61.78125 -104.59375 C 79.550781 -104.59375 93.304688 -99.976562 103.046875 -90.75 C 112.796875 -81.519531 117.671875 -68.359375 117.671875 -51.265625 Z M 74.859375 -60.75 C 71.441406 -69.46875 67.082031 -73.828125 61.78125 -73.828125 C 54.601562 -73.828125 49.988281 -69.46875 47.9375 -60.75 Z M 74.859375 -60.75 "/></g></g></g><g fill="#6dc179" fill-opacity="1"><g transform="translate(861.353426, 163.433711)"><g><path d="M 106.640625 -30.765625 L 75.890625 -43.328125 C 75.367188 -35.460938 71.347656 -31.53125 63.828125 -31.53125 C 59.554688 -31.53125 56.179688 -33.15625 53.703125 -36.40625 C 51.222656 -39.65625 49.984375 -44.179688 49.984375 -49.984375 L 49.984375 -64.34375 L 71.015625 -64.34375 L 71.015625 -95.109375 L 49.984375 -95.109375 L 49.984375 -124.328125 L 8.453125 -124.328125 L 8.453125 -42.296875 C 8.453125 -28.109375 12.597656 -17.171875 20.890625 -9.484375 C 29.179688 -1.796875 40.929688 2.046875 56.140625 2.046875 C 71.691406 2.046875 83.828125 -0.8125 92.546875 -6.53125 C 101.265625 -12.257812 105.960938 -20.335938 106.640625 -30.765625 Z M 106.640625 -30.765625 "/></g></g></g><g fill="#6dc179" fill-opacity="1"><g transform="translate(971.820717, 163.433711)"><g><path d="M 79.984375 -104.59375 C 92.804688 -104.59375 102.675781 -100.53125 109.59375 -92.40625 C 116.519531 -84.289062 119.984375 -72.882812 119.984375 -58.1875 L 119.984375 0 L 78.1875 0 L 78.1875 -43.578125 C 78.1875 -52.128906 77.078125 -58.664062 74.859375 -63.1875 C 72.640625 -67.71875 69.390625 -69.984375 65.109375 -69.984375 C 57.765625 -69.984375 52.722656 -63.578125 49.984375 -50.765625 L 49.984375 0 L 8.453125 0 L 8.453125 -128.1875 L 49.984375 -128.1875 L 49.984375 -86.390625 C 56.140625 -98.179688 66.140625 -104.25 79.984375 -104.59375 Z M 79.984375 -104.59375 "/></g></g></g><g fill="#6dc179" fill-opacity="1"><g transform="translate(1098.435219, 163.433711)"><g><path d="M 117.671875 -51.265625 C 117.671875 -49.390625 117.5 -47.425781 117.15625 -45.375 C 116.8125 -43.320312 116.46875 -41.359375 116.125 -39.484375 L 48.96875 -39.484375 C 51.53125 -32.472656 55.972656 -28.96875 62.296875 -28.96875 C 67.253906 -28.96875 70.671875 -31.359375 72.546875 -36.140625 L 113.828125 -29.21875 C 110.066406 -19.3125 103.65625 -11.625 94.59375 -6.15625 C 85.539062 -0.6875 74.601562 2.046875 61.78125 2.046875 C 44.007812 2.046875 30.296875 -2.609375 20.640625 -11.921875 C 10.984375 -21.234375 6.15625 -34.347656 6.15625 -51.265625 C 6.15625 -68.359375 10.984375 -81.519531 20.640625 -90.75 C 30.296875 -99.976562 44.007812 -104.59375 61.78125 -104.59375 C 79.550781 -104.59375 93.304688 -99.976562 103.046875 -90.75 C 112.796875 -81.519531 117.671875 -68.359375 117.671875 -51.265625 Z M 74.859375 -60.75 C 71.441406 -69.46875 67.082031 -73.828125 61.78125 -73.828125 C 54.601562 -73.828125 49.988281 -69.46875 47.9375 -60.75 Z M 74.859375 -60.75 "/></g></g></g><g fill="#6dc179" fill-opacity="1"><g transform="translate(1221.974007, 163.433711)"><g><path d="M 79.46875 -104.59375 C 86.132812 -104.59375 92.375 -103.097656 98.1875 -100.109375 C 104 -97.117188 108.613281 -92.375 112.03125 -85.875 L 83.578125 -59.46875 C 78.453125 -66.476562 72.128906 -69.984375 64.609375 -69.984375 C 61.015625 -69.984375 57.976562 -67.632812 55.5 -62.9375 C 53.019531 -58.238281 51.179688 -51.445312 49.984375 -42.5625 L 49.984375 0 L 8.453125 0 L 8.453125 -102.546875 L 49.984375 -102.546875 L 49.984375 -86.390625 C 55.972656 -98.179688 65.800781 -104.25 79.46875 -104.59375 Z M 79.46875 -104.59375 "/></g></g></g></g></g></svg>